<svg width="500" height="149" fill="none" xmlns="http://www.w3.org/2000/svg">
  <path d="M488.747 146.826H500V72.0624h-28.758v15.7758h10.629v32.6028c0 7.27-2.919 11.004-8.959 11.004-6.041 0-8.96-3.734-8.96-11.004V27.8311c0-7.27 2.919-11.0102 8.749-11.0102 5.831 0 8.756 3.7402 8.756 11.0102v22.2175h18.109V28.449C499.566 11.0036 490.002 0 472.701 0c-17.708 0-28.35 11.0036-28.35 28.449v92.209c0 17.446 9.584 27.608 24.38 27.608 7.5 0 12.923-2.695 16.256-7.888l3.76 6.448zM393.474 27.8311c0-7.27 2.919-11.0102 8.756-11.0102s8.749 3.7402 8.749 11.0102v92.6239c0 7.27-2.912 11.003-8.749 11.003-5.837 0-8.756-3.733-8.756-11.003V27.8311zm29.58 112.7639c5.015-5.186 7.493-12.042 7.493-20.765V28.4621C430.547 11.0036 419.945 0 402.23 0s-28.344 11.0036-28.344 28.449v91.368c0 8.723 2.504 15.579 7.506 20.765 5.003 5.186 11.878 7.684 20.838 7.684 8.959 0 15.835-2.491 20.837-7.684l-.013.013zM324.679 18.2736h4.371c8.131 0 12.298 5.4032 12.298 16.4331v78.8923c0 11.01-4.167 16.433-12.298 16.433h-4.371V18.2736zm7.086 128.5524c17.294 0 28.961-10.799 28.961-32.603V34.0297c0-21.8035-11.667-32.60331-28.961-32.60331h-26.471V146.826h26.471zm-53.553 0L293.429 1.45269H274.88L266.992 93.248l-9.827-91.79531h-18.957L228.413 93.248l-7.085-91.79531h-20.009l15.42 145.37331h21.258l9.374-88.2584 8.755 88.2584h22.086zm-86.339 0v-16.82h-31.88V76.427h20.633V59.8165h-20.633V18.2736h31.045V1.45269h-50.43V146.826h51.265zm-65.009 0c-.9-6.264-1.455-12.573-1.664-18.898l-.834-30.3154c-.625-12.4892-5.003-20.147-13.147-22.8486 9.593-3.9439 14.387-12.8748 14.382-26.7925v-17.235c0-20.5611-11.667-29.28381-29.1716-29.28381H69.9787V146.826h19.3779V82.2444h3.1223c8.1311 0 12.0881 4.7721 12.2981 14.3296l.625 28.863c0 9.551.657 16.617 2.084 21.389h19.378zM89.3566 17.8595h6.0408c7.2966 0 11.0426 4.5684 11.0426 13.5014v20.9752c0 8.9265-4.371 13.9156-11.2463 13.9156h-5.8371V17.8595zM19.3779 78.9183h6.0474c7.2897 0 11.6675 4.7788 11.6675 13.2911v23.6636c0 9.761-3.543 14.533-10.8327 14.533h-6.8822V78.9183zm0-61.0588h5.6004c7.5066 0 11.2534 4.5684 11.2534 13.9155v18.6878c0 8.1048-4.1674 12.8769-11.4572 12.8769h-5.3966V17.8595zM27.509 146.826c17.5045 0 28.9617-10.385 28.9617-30.94V94.2865c0-12.2525-4.3712-20.377-12.9164-24.3209 7.8879-3.7336 11.8778-11.8319 11.8778-24.091V30.3224c0-20.56114-11.4571-28.86971-28.1334-28.86971H0V146.826h27.509z" fill="#010101"/>
</svg>
